<?xml version="1.0" encoding="iso-8859-1"?>
<!-- Generator: Adobe Illustrator 16.0.0, SVG Export Plug-In . SVG Version: 6.00 Build 0)  -->
<!DOCTYPE svg PUBLIC "-//W3C//DTD SVG 1.1//EN" "http://www.w3.org/Graphics/SVG/1.1/DTD/svg11.dtd">
<svg version="1.1" id="Capa_1" xmlns="http://www.w3.org/2000/svg" xmlns:xlink="http://www.w3.org/1999/xlink" x="0px" y="0px"
	 width="331.925px" height="331.925px" viewBox="0 0 331.925 331.925" style="enable-background:new 0 0 331.925 331.925;"
	 xml:space="preserve">
<g>
	<path d="M251.879,164.637l21.413,0.36v110.979c0,0.205-0.152,0.363-0.347,0.363l-21.428-0.363L251.879,164.637z"/>
	<polygon points="95.321,164.632 122.957,164.632 150.143,164.997 149.778,184.502 122.957,184.502 94.962,184.134 	"/>
	<path d="M95.311,245.735c-0.113,0-0.215,0.031-0.328,0.031l-0.027-0.398l0.359-19.497h27.828l26.99,0.358l-0.36,19.495
		L95.311,245.735z"/>
	<path d="M94.962,214.754l0.359-19.503h27.636l27.195,0.363l-0.369,19.496l-54.462,0.01c-0.112,0-0.22,0.033-0.338,0.033
		L94.962,214.754z"/>
	<polygon points="95.321,281.726 94.956,275.987 95.321,256.486 123.153,256.481 150.143,256.843 149.778,276.345 122.962,276.345 
		122.952,276.351 95.321,276.351 	"/>
	<path d="M127.922,331.925v-39.513c0.263-0.634,0.405-1.321,0.405-2.046v-3.265h21.446c6.135,0,11.116-4.988,11.116-11.114v-19.145
		c0-0.943-0.149-1.837-0.37-2.72c-0.071-0.252-0.149-0.493-0.236-0.745c-0.215-0.649-0.483-1.26-0.805-1.857
		c-0.077-0.127-0.108-0.295-0.185-0.42c0.066-0.104,0.087-0.227,0.145-0.336c0.357-0.641,0.646-1.308,0.871-2.006
		c0.077-0.229,0.148-0.45,0.205-0.682c0.226-0.883,0.375-1.786,0.375-2.719l-0.005-19.142c0-0.938-0.149-1.841-0.375-2.714
		c-0.066-0.25-0.144-0.486-0.226-0.729c-0.215-0.66-0.488-1.275-0.812-1.867c-0.076-0.138-0.102-0.289-0.178-0.41
		c0.077-0.125,0.103-0.273,0.168-0.398c0.344-0.62,0.627-1.265,0.843-1.942c0.082-0.241,0.163-0.478,0.22-0.725
		c0.216-0.872,0.36-1.763,0.36-2.677l0.005-19.14c0-0.95-0.149-1.854-0.375-2.729c-0.066-0.252-0.144-0.482-0.226-0.725
		c-0.215-0.656-0.483-1.271-0.805-1.869c-0.082-0.13-0.113-0.294-0.189-0.431c0.082-0.131,0.113-0.294,0.189-0.424
		c0.322-0.589,0.585-1.203,0.795-1.844c0.087-0.252,0.165-0.493,0.236-0.751c0.221-0.877,0.37-1.769,0.37-2.714l0.005-19.136
		c0-0.746-0.079-1.478-0.221-2.181c-0.047-0.242-0.139-0.462-0.202-0.699c-0.124-0.451-0.244-0.908-0.42-1.338
		c-0.113-0.271-0.262-0.512-0.394-0.775c-0.182-0.365-0.36-0.737-0.581-1.081c-0.165-0.258-0.37-0.483-0.559-0.724
		c-0.194-0.25-0.359-0.523-0.575-0.754c0.302-0.07,0.575-0.215,0.871-0.307c0.087-0.021,0.161-0.058,0.242-0.087
		c0.575-0.192,1.149-0.396,1.688-0.682c0.688-0.349,1.344-0.77,1.945-1.274l18.854-15.921v192.745h-53.616V331.925z"/>
	<path d="M230.168,132.041c-0.143,0.749-0.132,1.494,0.037,2.236v141.7c0,0.21-0.157,0.368-0.367,0.368l-29.104-0.368l-0.01-140.549
		c0-1.581-0.693-3.084-1.901-4.106l-8.44-7.128c-0.021-0.01-0.451-0.37-0.462-0.386c-0.504-0.409-1.06-0.716-1.644-0.921
		c-0.236-0.084-0.482-0.074-0.729-0.123c-0.346-0.069-0.693-0.176-1.05-0.176c-0.005,0-0.01,0-0.01,0
		c-0.515,0-1.008,0.113-1.491,0.257c-0.111,0.032-0.221,0.022-0.326,0.061c-0.588,0.208-1.144,0.524-1.647,0.944l-27.788,22.995
		l-12.268-15.1c0-0.016,0.01-0.069,0.01-0.069l40.97-34.606c0.912-0.163,4.119-0.163,5.132,0.016L230.168,132.041z"/>
	<path d="M182.635,83.237l-46.639,40.258c-2.267,1.919-3.662,4.602-3.908,7.562c-0.247,2.958,0.672,5.838,2.585,8.103l12.344,14.62
		c0.031,0.034,0.062,0.07,0.089,0.102h-18.809l-0.349-74.25h54.686V83.237z"/>
	<polygon points="58.633,45.111 117.72,0 252.41,0 252.41,68.88 188.01,68.88 122.548,68.88 58.633,68.88 	"/>
</g>
<g>
</g>
<g>
</g>
<g>
</g>
<g>
</g>
<g>
</g>
<g>
</g>
<g>
</g>
<g>
</g>
<g>
</g>
<g>
</g>
<g>
</g>
<g>
</g>
<g>
</g>
<g>
</g>
<g>
</g>
</svg>
