<?xml version="1.0" encoding="iso-8859-1"?>
<!-- Generator: Adobe Illustrator 18.1.1, SVG Export Plug-In . SVG Version: 6.00 Build 0)  -->
<svg version="1.1" id="Capa_1" xmlns="http://www.w3.org/2000/svg" xmlns:xlink="http://www.w3.org/1999/xlink" x="0px" y="0px"
	 viewBox="0 0 38.037 38.037" style="enable-background:new 0 0 38.037 38.037;" xml:space="preserve">
<g>
	<path style="fill:#010002;" d="M37.029,26.071l-4.617-4.617c-1.345-1.345-1.345-3.525,0-4.87l4.617-4.617
		c1.345-1.345,1.345-3.525,0-4.87l-6.088-6.088c-1.345-1.345-3.525-1.345-4.87,0l-4.617,4.617c-1.345,1.345-3.525,1.345-4.87,0
		l-4.617-4.617c-1.345-1.345-3.525-1.345-4.87,0L1.009,7.097c-1.345,1.345-1.345,3.525,0,4.87l4.617,4.617
		c1.345,1.345,1.345,3.525,0,4.87l-4.617,4.617c-1.345,1.345-1.345,3.525,0,4.87l6.088,6.088c1.345,1.345,3.525,1.345,4.87,0
		l4.617-4.617c1.345-1.345,3.525-1.345,4.87,0l4.617,4.617c1.345,1.345,3.525,1.345,4.87,0l6.088-6.088
		C38.374,29.596,38.374,27.416,37.029,26.071z"/>
</g>
<g>
</g>
<g>
</g>
<g>
</g>
<g>
</g>
<g>
</g>
<g>
</g>
<g>
</g>
<g>
</g>
<g>
</g>
<g>
</g>
<g>
</g>
<g>
</g>
<g>
</g>
<g>
</g>
<g>
</g>
</svg>
