<?xml version="1.0" encoding="iso-8859-1"?>
<!-- Generator: Adobe Illustrator 16.0.0, SVG Export Plug-In . SVG Version: 6.00 Build 0)  -->
<!DOCTYPE svg PUBLIC "-//W3C//DTD SVG 1.1//EN" "http://www.w3.org/Graphics/SVG/1.1/DTD/svg11.dtd">
<svg version="1.1" id="Capa_1" xmlns="http://www.w3.org/2000/svg" xmlns:xlink="http://www.w3.org/1999/xlink" x="0px" y="0px"
	 width="53.086px" height="53.087px" viewBox="0 0 53.086 53.087" style="enable-background:new 0 0 53.086 53.087;"
	 xml:space="preserve">
<g>
	<g>
		<path d="M24.999,43.856c2.875,0,5.208-2.331,5.208-5.209v-5.921c4.279-2.68,7.255-8.538,7.255-15.354
			c0-9.345-1.265-16.92-12.463-16.92c-10.717,0-12.463,7.575-12.463,16.92c0,6.815,2.976,12.675,7.255,15.354v5.921
			C19.791,41.523,22.122,43.856,24.999,43.856z"/>
		<path d="M33.412,41.815c0-2.485,1.17-4.697,2.983-6.129c-0.046-0.017-0.1-0.035-0.146-0.051l-3.577-1.105
			c-0.271-0.085-0.581-0.164-0.901-0.241v4.357c0,3.74-3.03,6.772-6.77,6.772c-3.739,0-6.771-3.03-6.771-6.771v-4.359
			c-0.322,0.077-0.629,0.156-0.901,0.241l-3.578,1.105c-1.649,0.511-4.132,1.726-5.545,2.716L2.56,42.307
			C1.146,43.297,0,45.444,0,47.101c0,1.655,1.399,3,3.125,3c6.707,0,21.873,0,21.875,0h9.353c-0.601-1.106-0.942-2.372-0.942-3.717
			L33.412,41.815L33.412,41.815z"/>
		<path d="M46.836,35.565h-5.554c-3.453,0-6.25,2.799-6.25,6.25v4.568c0,3.452,2.797,6.25,6.25,6.25h5.554
			c3.452,0,6.25-2.798,6.25-6.25v-4.568C53.086,38.364,50.289,35.565,46.836,35.565z M49.181,41.086l-5.28,7.994
			c-0.199,0.303-0.532,0.468-0.871,0.468c-0.185,0-0.371-0.049-0.541-0.151l-3.993-2.433c-0.491-0.299-0.646-0.939-0.348-1.433
			c0.299-0.488,0.938-0.646,1.433-0.348l3.135,1.91l4.729-7.155c0.318-0.481,0.966-0.614,1.443-0.295
			C49.368,39.961,49.498,40.607,49.181,41.086z"/>
	</g>
</g>
<g>
</g>
<g>
</g>
<g>
</g>
<g>
</g>
<g>
</g>
<g>
</g>
<g>
</g>
<g>
</g>
<g>
</g>
<g>
</g>
<g>
</g>
<g>
</g>
<g>
</g>
<g>
</g>
<g>
</g>
</svg>
