<?xml version="1.0" encoding="iso-8859-1"?>
<!-- Generator: Adobe Illustrator 18.1.1, SVG Export Plug-In . SVG Version: 6.00 Build 0)  -->
<svg version="1.1" id="Capa_1" xmlns="http://www.w3.org/2000/svg" xmlns:xlink="http://www.w3.org/1999/xlink" x="0px" y="0px"
	 viewBox="0 0 56.25 56.25" style="enable-background:new 0 0 56.25 56.25;" xml:space="preserve">
<g>
	<path style="fill:#010002;" d="M46.25,8.458c1.657,0,3,1.343,3,3v22.206c0,1.657-1.343,3-3,3H24.925
		c-1.657,0-3.652,1.174-4.456,2.623l-3.264,5.881c-0.803,1.449-2.127,2.623-2.955,2.623s-1.606-1.339-1.737-2.991l-0.408-5.147
		c-0.131-1.652-1.327-2.991-2.671-2.991S7,35.319,7,33.662V11.458c0-1.657,1.343-3,3-3H46.25 M46.25,1.458H10
		c-5.514,0-10,4.486-10,10v22.206c0,3.952,2.174,7.376,5.321,8.999l0.213,2.691c0.434,5.468,4.1,9.437,8.716,9.437
		c4.144,0,7.406-3.217,9.076-6.227l2.72-4.901H46.25c5.514,0,10-4.486,10-10V11.458C56.25,5.944,51.764,1.458,46.25,1.458
		L46.25,1.458z M45.75,16.542c0-1.657-1.343-3-3-3H13c-1.657,0-3,1.343-3,3s1.343,3,3,3h29.75
		C44.407,19.542,45.75,18.198,45.75,16.542z M32.125,27.125c0-1.657-1.343-3-3-3H13c-1.657,0-3,1.343-3,3c0,1.657,1.343,3,3,3
		h16.125C30.782,30.125,32.125,28.782,32.125,27.125z"/>
</g>
<g>
</g>
<g>
</g>
<g>
</g>
<g>
</g>
<g>
</g>
<g>
</g>
<g>
</g>
<g>
</g>
<g>
</g>
<g>
</g>
<g>
</g>
<g>
</g>
<g>
</g>
<g>
</g>
<g>
</g>
</svg>
