<?xml version="1.0" encoding="iso-8859-1"?>
<!-- Generator: Adobe Illustrator 16.0.0, SVG Export Plug-In . SVG Version: 6.00 Build 0)  -->
<!DOCTYPE svg PUBLIC "-//W3C//DTD SVG 1.1//EN" "http://www.w3.org/Graphics/SVG/1.1/DTD/svg11.dtd">
<svg version="1.1" id="Capa_1" xmlns="http://www.w3.org/2000/svg" xmlns:xlink="http://www.w3.org/1999/xlink" x="0px" y="0px"
	 width="102.166px" height="102.166px" viewBox="0 0 102.166 102.166" style="enable-background:new 0 0 102.166 102.166;"
	 xml:space="preserve">
<g>
	<path d="M77.5,8.75v24.666h24.666V8.75H77.5z M98.166,29.416H81.5V12.75h16.666V29.416z M0,93.416h24.666V68.75H0V93.416z M4,72.75
		h16.666v16.666H4V72.75z M38.75,63.268h24.666V38.601H38.75V63.268z M42.75,42.601h16.666v16.667H42.75V42.601z M86.583,37.1h5
		v16.268h-1.751v0.065h-22v-5h18.751V37.1z M12.332,48.434h23.25v5H14.833v11.733h-5V48.451h2.499V48.434z"/>
</g>
<g>
</g>
<g>
</g>
<g>
</g>
<g>
</g>
<g>
</g>
<g>
</g>
<g>
</g>
<g>
</g>
<g>
</g>
<g>
</g>
<g>
</g>
<g>
</g>
<g>
</g>
<g>
</g>
<g>
</g>
</svg>
