<?xml version="1.0" encoding="iso-8859-1"?>
<!-- Generator: Adobe Illustrator 16.0.0, SVG Export Plug-In . SVG Version: 6.00 Build 0)  -->
<!DOCTYPE svg PUBLIC "-//W3C//DTD SVG 1.1//EN" "http://www.w3.org/Graphics/SVG/1.1/DTD/svg11.dtd">
<svg version="1.1" id="Capa_1" xmlns="http://www.w3.org/2000/svg" xmlns:xlink="http://www.w3.org/1999/xlink" x="0px" y="0px"
	 width="53.58px" height="53.581px" viewBox="0 0 53.58 53.581" style="enable-background:new 0 0 53.58 53.581;"
	 xml:space="preserve">
<g>
	<g>
		<path d="M5.994,48.428c-0.405-6.235,1.854-11.505,1.962-11.75c0.231-0.527,0.845-0.766,1.371-0.536
			c0.527,0.23,0.767,0.845,0.538,1.37c-0.026,0.061-2.6,6.079-1.607,12.496c1.582,1.413,5.323,3.216,14.082,3.107
			c8.302,0.104,12.092-1.511,13.816-2.884c0-0.007-0.002-0.013-0.001-0.017c1.086-6.518-1.553-12.642-1.58-12.701
			c-0.23-0.527,0.011-1.142,0.537-1.372c0.53-0.233,1.143,0.01,1.371,0.536c0.107,0.245,2.363,5.509,1.963,11.739
			c5.826,0.187,6.231-2.484,6.231-2.484c0.072-7.902-1.797-12.141-3.09-14.439s-7.039-3.951-10.774-5.173
			c-2.88-0.94-2.905-2.787-2.766-3.584c2.359-2.29,4.208-5.814,4.208-9.777c0-6.903-3.304-12.5-9.77-12.5
			c-7.327,0-9.77,5.597-9.77,12.5c0,3.747,1.655,7.099,3.83,9.39h-0.009c0,0,1.066,2.751-2.669,3.971
			c-3.735,1.222-9.482,2.874-10.776,5.173c-1.293,2.299-3.161,6.537-3.089,14.439C0.001,45.93,0.387,48.537,5.994,48.428z"/>
		<path d="M39.82,18.986h10.635c1.725,0,3.125-1.4,3.125-3.125V7.397c0-1.727-1.4-3.125-3.125-3.125H37.434
			c-1.724,0-3.125,1.398-3.125,3.125v6.267l-2.695,10.347L39.82,18.986z M43.745,15.597l-0.975-0.423l2.908-6.679l0.975,0.423
			L43.745,15.597z M44.29,5.981c0.235-0.538,1.11-0.675,1.955-0.307c0.845,0.369,1.341,1.104,1.106,1.639
			c-0.236,0.54-0.425,0.976-0.425,0.976l-3.062-1.333L44.29,5.981z M43.593,7.584l1.529,0.667l-2.908,6.68l-1.531-0.668
			L43.593,7.584z M43.55,16.045l-2.656,1.79l-0.404-3.125L43.55,16.045z"/>
	</g>
</g>
<g>
</g>
<g>
</g>
<g>
</g>
<g>
</g>
<g>
</g>
<g>
</g>
<g>
</g>
<g>
</g>
<g>
</g>
<g>
</g>
<g>
</g>
<g>
</g>
<g>
</g>
<g>
</g>
<g>
</g>
</svg>
